<?xml version="1.0" encoding="UTF-8" standalone="no"?>
<!-- Created with Inkscape (http://www.inkscape.org/) -->

<svg
   version="1.1"
   id="svg1"
   width="1856"
   height="795.73334"
   viewBox="0 0 1856 795.73334"
   sodipodi:docname="logogrey.svg"
   inkscape:version="1.4 (86a8ad7, 2024-10-11)"
   xmlns:inkscape="http://www.inkscape.org/namespaces/inkscape"
   xmlns:sodipodi="http://sodipodi.sourceforge.net/DTD/sodipodi-0.dtd"
   xmlns="http://www.w3.org/2000/svg"
   xmlns:svg="http://www.w3.org/2000/svg">
  <defs
     id="defs1" />
  <sodipodi:namedview
     id="namedview1"
     pagecolor="#ffffff"
     bordercolor="#000000"
     borderopacity="0.25"
     inkscape:showpageshadow="2"
     inkscape:pageopacity="0.0"
     inkscape:pagecheckerboard="0"
     inkscape:deskcolor="#d1d1d1"
     inkscape:zoom="0.23922414"
     inkscape:cx="83.603604"
     inkscape:cy="842.30631"
     inkscape:window-width="1920"
     inkscape:window-height="1017"
     inkscape:window-x="-8"
     inkscape:window-y="-8"
     inkscape:window-maximized="1"
     inkscape:current-layer="g9" />
  <g
     inkscape:groupmode="layer"
     inkscape:label="Image"
     id="g1">
    <g
       id="g9">
      <path
         style="fill:#3465a4"
         d="m 898.50552,668.00352 c -9.43617,-0.22241 -14.35866,-0.75717 -15.03858,-1.63374 -0.55592,-0.71671 -2.5824,-5.14311 -4.50329,-9.83644 -1.92089,-4.69334 -4.37162,-10.45334 -5.44607,-12.8 -8.72999,-19.0668 -49.20005,-114.18903 -56.82766,-133.56969 -7.86456,-19.98271 -7.70765,-19.32448 -4.75052,-19.9286 6.79285,-1.38772 14.17726,-1.90066 37.67552,-2.61705 14.08821,-0.42951 26.20821,-1.14759 26.93334,-1.59575 1.9362,-1.19663 1.92149,-124.3029 -0.0149,-124.9011 C 875.8,360.8946 853.96,360.41245 828,360.04968 l -47.2,-0.65956 V 513.56173 667.73334 H 763.73333 746.66667 V 503.46667 339.2 l 68.53333,0.0372 c 82.87093,0.045 87.31842,0.5096 92.0262,9.61345 2.76251,5.34211 3.63392,22.5897 3.66209,72.48267 0.0265,46.88892 -0.95694,69.18017 -3.30759,74.9741 -1.43017,3.52511 -8.2738,7.78102 -16.09911,10.01171 -3.45274,0.98424 -12.52836,1.82348 -23.56828,2.17941 -14.06573,0.45347 -18.07829,0.90435 -18.53026,2.08217 -0.51405,1.33958 5.31307,15.70488 14.42814,35.56898 1.7457,3.80433 7.84607,17.47696 13.55638,30.38363 5.7103,12.90666 11.4685,25.86666 12.79599,28.8 10.99307,24.29119 27.16977,61.39847 27.16977,62.32396 0,0.62849 -1.08,1.03789 -2.4,0.90977 -1.32,-0.12811 -8.71251,-0.38171 -16.42781,-0.56355 z M 979.2,503.54485 V 338.32413 l 36,0.44679 c 79.3707,0.98507 83.1219,1.28134 95.5738,7.54853 15.6109,7.85715 26.7123,19.10032 31.7025,32.10747 2.1517,5.6085 2.4119,8.84613 3.1919,39.70642 1.1202,44.31798 1.1068,115.11794 -0.031,162.13333 -0.9854,40.72957 -1.9394,48.49138 -7.036,57.24509 -4.3293,7.43572 -18.851,18.52332 -31.7067,24.20873 -11.924,5.27334 -16.0633,5.5819 -87.4282,6.51729 L 979.2,668.76556 Z m 102.5061,139.39214 c 13.6818,-4.66172 23.6459,-12.26305 28.1209,-21.45271 4.4474,-9.13298 4.9173,-21.60263 4.2463,-112.68428 -0.6956,-94.41357 -1.5622,-119.66745 -4.2893,-124.99685 -5.4356,-10.6225 -13.7558,-16.80776 -27.0652,-20.12027 -8.8914,-2.21295 -35.5429,-4.10213 -58.9855,-4.18115 l -10.4,-0.0351 v 142.22222 c 0,78.22222 0.3571,142.57925 0.7934,143.01561 0.4364,0.43637 14.7164,0.5933 31.7334,0.34874 24.3927,-0.35055 31.9781,-0.79837 35.846,-2.11625 z m 287.5393,25.07672 -9.4213,-0.366 -4.599,-9.82385 c -2.5295,-5.40312 -7.7231,-16.78386 -11.5414,-25.29052 -5.7799,-12.87699 -16.1096,-35.76167 -25.2773,-56 -1.063,-2.34667 -5.2884,-11.70667 -9.3897,-20.8 -4.1014,-9.09334 -11.6231,-25.65334 -16.7149,-36.8 -5.0918,-11.14667 -9.9154,-21.70667 -10.7193,-23.46667 -0.8038,-1.76 -5.0256,-11.12 -9.3819,-20.8 -13.9863,-31.07902 -22.3881,-48.07071 -23.576,-47.67978 -0.6369,0.20958 -1.4658,3.22327 -1.8422,6.69709 -0.3763,3.47381 -0.7363,57.55602 -0.8,120.18269 l -0.1157,113.86667 h -16 -16 V 503.64445 c 0,-90.24889 0.1979,-164.28889 0.4398,-164.53334 0.2419,-0.24444 6.0253,-0.20444 12.8519,0.0889 l 12.4121,0.53334 4.596,10.13333 c 6.9244,15.26727 7.9777,17.6035 20.9209,46.4 15.9224,35.42463 15.0342,33.45285 29.069,64.53333 6.7554,14.96 16.3882,36.32 21.4063,47.46667 5.0181,11.14667 13.8835,30.82667 19.7009,43.73333 6.4077,14.21636 11.1604,23.46667 12.0568,23.46667 1.2477,0 1.5807,-16.88656 2.1246,-107.73333 0.3547,-59.25334 0.7147,-112.41334 0.8,-118.13334 l 0.155,-10.4 h 16.0034 16.0034 l -0.2701,164.51874 c -0.2386,145.37076 -0.4563,164.52702 -1.87,164.58985 -0.88,0.0391 -5.8396,-0.0936 -11.0213,-0.29488 z m 104.7492,0.006 -22.0053,-0.32901 1.3964,-7.17874 c 1.3747,-7.06666 3.7797,-18.00533 5.7999,-26.37875 0.5661,-2.34667 2.2566,-10.02667 3.7565,-17.06667 1.5,-7.04 3.3973,-15.68 4.2162,-19.2 1.6572,-7.12285 3.4528,-15.16781 7.6184,-34.13333 1.5462,-7.04 3.7323,-16.88 4.8579,-21.86667 1.1256,-4.98667 2.7349,-12.42667 3.5763,-16.53333 0.8414,-4.10667 3.2365,-14.90667 5.3224,-24 2.086,-9.09334 4.4879,-19.89334 5.3376,-24 0.8497,-4.10667 4.2127,-19.22667 7.4732,-33.6 3.2606,-14.37334 6.6282,-29.49334 7.4836,-33.6 1.5066,-7.23316 2.3588,-11.13828 8.38,-38.4 4.6581,-21.09057 5.8074,-26.24166 7.9725,-35.73334 1.1375,-4.98666 3.1136,-13.86667 4.3914,-19.73333 1.2777,-5.86667 2.9725,-13.54667 3.7661,-17.06667 3.2166,-14.26668 4.9858,-22.20347 9.0358,-40.53333 5.4849,-24.82467 5.6086,-25.38069 10.6791,-48 9.0221,-40.24749 16.2621,-72.86616 20.953,-94.4 2.1086,-9.68 4.5006,-20.480003 5.3154,-24.000003 0.8149,-3.52 2.4294,-10.72 3.5879,-16 1.1586,-5.28 3.6873,-16.56 5.6194,-25.066667 l 3.513,-15.466666 32.6992,-0.281967 32.6992,-0.281966 1.6802,5.779468 c 0.924,3.178707 1.6801,6.394925 1.6801,7.147151 0,0.752226 0.7054,4.27835 1.5676,7.835832 0.8621,3.557482 3.7447,16.548148 6.4057,28.868148 2.661,12.32 5.3082,24.32 5.8827,26.66667 0.5745,2.34666 3.6945,16.50666 6.9333,31.46666 3.2389,14.96 6.3597,29.12 6.9353,31.46667 0.5756,2.34667 2.2773,10.02667 3.7817,17.06667 2.8013,13.10951 4.9411,22.83791 7.5078,34.13333 0.7999,3.52 3.6315,16.48 6.2925,28.8 2.661,12.32 5.3035,24.32 5.8721,26.66667 1.4677,6.05737 5.9867,26.5742 9.1627,41.6 1.488,7.04 3.3844,15.68 4.2141,19.2 0.8297,3.52 4.669,20.8 8.5318,38.4 3.8627,17.6 9.1829,41.84 11.8226,53.86667 5.4112,24.65411 9.7718,44.29063 10.5407,47.46666 0.2841,1.17334 2.6865,12.21334 5.3387,24.53334 2.6522,12.32 5.301,24.32 5.8863,26.66666 0.5852,2.34667 3.7012,16.50667 6.9244,31.46667 3.2232,14.96 6.3392,29.12 6.9244,31.46667 0.5852,2.34666 4.1932,18.66666 8.0177,36.26666 3.8246,17.6 7.1233,32.76748 7.3305,33.7055 0.3296,1.49239 -1.838,1.77614 -17.3479,2.2709 -9.7486,0.31098 -24.4247,0.2635 -32.6136,-0.10549 l -14.889,-0.67091 -3.5125,-17.6 c -1.9319,-9.68 -8.0938,-40.6252 -13.693,-68.76711 -5.5993,-28.14191 -10.7587,-51.53456 -11.4652,-51.98367 -0.7066,-0.4491 -37.1134,-0.8239 -80.9041,-0.83288 L 1542.6279,528 l -1.1789,6.13334 c -0.6485,3.37333 -1.6679,8.77333 -2.2655,12 -0.5975,3.22666 -1.5394,7.78666 -2.093,10.13333 -0.5536,2.34667 -2.2591,10.98667 -3.7902,19.2 -1.531,8.21333 -4.1687,21.89333 -5.8616,30.4 -1.6928,8.50667 -3.5714,18.10667 -4.1745,21.33333 -0.6031,3.22667 -2.7024,13.78667 -4.6652,23.46667 l -3.5686,17.6 -9.5152,0.0411 c -5.2334,0.0226 -19.4176,-0.10696 -31.5206,-0.28791 z M 1694.5475,480.5336 c 0.7245,-1.88797 0.1917,-4.8837 -7.5887,-42.66693 -7.6498,-37.14896 -34.417,-169.73465 -36.9317,-182.93334 -1.0618,-5.57333 -3.6443,-18.29333 -5.7387,-28.26666 -2.0944,-9.97334 -4.7233,-22.69334 -5.8419,-28.26667 -2.4985,-12.44876 -9.1635,-43.83612 -11.3817,-53.6 -2.8214,-12.41848 -5.0972,-9.18057 -9.934,14.13333 -1.1562,5.57334 -3.0981,14.69334 -4.3152,20.26667 -1.2171,5.57333 -3.6342,17.09333 -5.3713,25.6 -1.7371,8.50667 -4.1345,20.02667 -5.3276,25.6 -1.1931,5.57333 -3.0989,14.93333 -4.2351,20.8 -1.1362,5.86667 -4.4364,22.18667 -7.3337,36.26667 -2.8973,14.08 -6.7477,33.04 -8.5564,42.13333 -1.8088,9.09334 -4.0165,19.89334 -4.9062,24 -2.0058,9.25876 -6.5144,31.45997 -8.5564,42.13334 -0.8418,4.4 -4.2093,20.96 -7.4834,36.8 -8.8294,42.71681 -9.6042,47.52409 -7.84,48.64169 0.8036,0.5091 32.7962,0.93299 71.0946,0.94197 60.9175,0.0143 69.7104,-0.1839 70.2474,-1.5834 z M 522.66667,666.75442 c -5.69661,-0.8696 -10.26382,-3.14947 -13.71864,-6.84809 -2.11368,-2.26286 -2.66631,-4.38001 -3.43713,-13.16802 -0.50518,-5.7594 -1.2464,-74.57298 -1.64716,-152.91907 l -0.72865,-142.44743 8.13544,-6.1229 8.13543,-6.12291 69.09702,0.30367 69.09702,0.30367 5.33333,2.66666 c 6.18185,3.09093 8.46446,6.85925 10.44474,17.2431 1.51362,7.93685 1.89293,274.90976 0.40774,286.98581 -1.11219,9.04321 -3.86418,13.23082 -11.41583,17.37109 l -5.83665,3.2 L 592,667.34358 c -35.49333,0.079 -66.69333,-0.18616 -69.33333,-0.58916 z M 640.80388,502.66667 640.53333,360 589.40275,359.72287 c -40.19721,-0.21787 -51.313,0.0102 -51.98366,1.06667 -0.98231,1.54735 -1.21716,280.3057 -0.2383,282.85656 0.57805,1.50638 6.18103,1.68724 52.27054,1.68724 h 51.62309 z"
         id="path11" />
      <path
         style="fill:#888a85"
         d="m 210.13333,761.4593 c -10.50759,-1.7158 -22.50909,-6.23049 -47.20518,-17.75749 l -24.27184,-11.32899 -12.06465,-14.45686 c -6.63556,-7.95128 -12.82582,-15.65516 -13.75612,-17.11974 -0.93031,-1.46459 -3.38654,-8.66288 -5.45829,-15.99622 -3.3247,-11.76838 -3.84852,-15.33646 -4.46291,-30.4 l -0.69608,-17.06666 5.34306,-14.67337 5.34307,-14.67337 9.99629,-10.66463 c 9.08419,-9.69155 14.03093,-13.50179 54.21447,-41.75894 25.40285,-17.86333 51.24235,-36.98659 60.72578,-44.94185 16.17291,-13.56679 16.5784,-14.01037 20,-21.87903 3.16622,-7.28137 3.4924,-9.01374 3.4924,-18.54833 v -10.51683 l -9.4548,-14.10516 -9.4548,-14.10516 -79.10571,-77.1949 C 96.006881,288.58655 79.683757,273.24768 53.839488,251.39463 l -30.372821,-25.68224 0,-5.02247 0,-5.02248 L 40.8,216.13967 c 9.533333,0.25972 25.253333,0.92946 34.933333,1.48831 9.68,0.55885 30.559997,1.50392 46.399997,2.10015 15.84,0.59623 39.6,1.57548 52.8,2.17611 13.2,0.60063 36.24,1.55327 51.2,2.11698 14.96,0.5637 39.92,1.50699 55.46667,2.09619 15.54667,0.58921 40.98667,1.54351 56.53333,2.12067 15.54667,0.57717 40.26667,1.53685 54.93334,2.13263 35.112,1.42629 74.83027,3.00975 107.73333,4.29503 26.63624,1.04048 40.87103,2.47497 44.692,4.50377 1.8895,1.00326 1.98109,2.05076 1.36569,15.6196 -0.36279,7.99932 -1.21618,17.60498 -1.89641,21.3459 l -1.23679,6.80168 -5.99558,-0.63521 c -3.29757,-0.34936 -19.19558,-1.14511 -35.32891,-1.76833 -16.13333,-0.62321 -41.09333,-1.60758 -55.46667,-2.18747 -14.37333,-0.5799 -38.85333,-1.51367 -54.4,-2.07506 -15.54666,-0.56138 -41.22666,-1.54147 -57.06666,-2.17797 -15.84,-0.6365 -35.04,-1.33 -42.66667,-1.54111 -7.62667,-0.21111 -28.98667,-1.0022 -47.46667,-1.75796 -18.48,-0.75577 -42.23148,-1.3935 -52.78108,-1.41718 -17.82816,-0.04 -19.20818,0.096 -19.56521,1.92918 -0.41382,2.12468 7.66887,10.04291 31.81157,31.16425 44.80367,39.19669 90.80559,92.70124 108.61563,126.33017 9.66791,18.25496 10.18593,20.62526 10.25707,46.93334 0.0507,18.74831 -0.27031,24.00391 -1.75913,28.8 -2.71584,8.74882 -12.14132,23.81151 -20.57885,32.8867 -13.97695,15.03325 -45.66736,38.51665 -71.04276,52.64449 -24.83742,13.82832 -45.89065,30.88343 -55.15574,44.68138 -5.09303,7.58475 -5.9608,11.02701 -5.29249,20.99422 1.27491,19.01401 12.02817,31.2027 36.44516,41.31014 l 9.05841,3.74973 h 288.59371 288.59371 v 30.93334 30.93333 l -288.26666,-0.1247 C 339.63321,762.47076 213.48388,762.00642 210.13333,761.4593 Z M 1629.3333,731.73334 V 700.8 h 104.8 104.8 l -0.016,9.86667 c -0.011,6.94711 -0.3325,9.39323 -1.0848,8.26667 -1.1089,-1.66053 -0.7355,20.50061 0.6066,36 l 0.6696,7.73333 h -104.8875 -104.8876 z m -812.26663,-1.06667 v -30.93333 h 3.58324 3.58325 l 7.35009,18.93333 7.35008,18.93333 0.29128,-18.93333 0.29128,-18.93333 H 843.75795 848 v 30.99772 30.99772 l -3.99603,-0.33105 -3.99604,-0.33106 -7.0262,-18.40001 c -3.86441,-10.12001 -7.2262,-18.601 -7.47063,-18.84664 -0.24444,-0.24564 -0.28556,8.15437 -0.0914,18.66668 l 0.35305,19.1133 h -4.35305 -4.35304 z m 38.4,0 V 699.73334 H 867.73333 880 V 704 v 4.26667 h -8 -8 v 8.53333 8.53334 h 6.93333 6.93334 V 729.6 733.86667 H 870.93333 864 v 9.6 9.6 h 8 8 V 757.33334 761.6 H 867.73333 855.46667 Z M 896.06944,756 c -1.34434,-6.55508 -10.73611,-55.50732 -10.73611,-55.95931 0,-0.16905 1.92,-0.30735 4.26667,-0.30735 2.34667,0 4.27221,0.36 4.27898,0.8 0.007,0.44 1.44123,9.2 3.18769,19.46666 1.74646,10.26667 3.18092,20.30667 3.18769,22.31111 0.007,2.00445 0.27548,3.38128 0.59713,3.05962 0.48614,-0.48613 7.89173,-42.33334 7.93476,-44.83739 0.008,-0.44 1.98579,-0.8 4.39605,-0.8 4.00346,0 4.33272,0.20747 3.80868,2.4 -0.31549,1.32 -2.54067,12.72 -4.94485,25.33333 -7.3602,38.6148 -5.95369,34.13333 -10.7128,34.13333 -4.10768,0 -4.11757,-0.0105 -5.26389,-5.6 z m 27.66389,-25.33333 V 699.73334 H 936 948.26667 V 704 v 4.26667 h -8 -8 V 716.8 725.33334 H 939.2 946.13333 V 729.6 733.86667 H 939.2 932.26667 v 9.6 9.6 h 8 8 V 757.33334 761.6 H 936 923.73333 Z m 32,0 v -30.93333 h 12.59613 c 8.4415,0 13.20191,0.44295 14.43275,1.34297 1.60789,1.17572 1.79933,3.13106 1.53721,15.70065 L 984,731.13465 l -3.86074,1.09934 c -3.55724,1.01293 -3.78088,1.30897 -2.84491,3.76601 0.5587,1.46667 2.86727,7.82667 5.13015,14.13334 l 4.11433,11.46666 -4.46941,-0.0105 -4.46942,-0.0105 -5.06667,-14.14619 c -2.78666,-7.78041 -5.06666,-15.45567 -5.06666,-17.05615 0,-2.73773 0.28409,-2.90996 4.8,-2.90996 h 4.8 v -9.6 -9.6 h -6.4 -6.4 V 734.93334 761.6 H 960 955.73333 Z M 1012,760.49626 c -1.7034,-1.03628 -1.8667,-3.64643 -1.8667,-29.84506 0,-28.05118 0.051,-28.73689 2.2346,-29.90536 3.4528,-1.84789 25.2975,-0.92709 26.5898,1.12083 0.5553,0.88 1.017,5.08 1.026,9.33333 l 0.016,7.73334 h -4.2667 -4.2666 V 713.6 708.26667 h -6.4 -6.4 v 22.4 22.4 h 6.4 6.4 V 744.53334 736 h -3.7334 c -3.6444,0 -3.7333,-0.10158 -3.7333,-4.26666 v -4.26667 h 8 8 l -0.016,15.2 c -0.01,8.36 -0.4707,15.92 -1.0259,16.8 -1.2515,1.98343 -23.964,2.85088 -26.9578,1.02959 z m 36.5333,-29.82959 v -30.93333 h 4.2667 4.2667 V 730.66667 761.6 h -4.2667 -4.2667 z M 1074.2028,756 c -1.3444,-6.55508 -10.7361,-55.50732 -10.7361,-55.95931 0,-0.16905 1.92,-0.30735 4.2666,-0.30735 2.3467,0 4.2722,0.36 4.279,0.8 0.01,0.44 1.4412,9.2 3.1877,19.46666 1.7465,10.26667 3.1809,20.30667 3.1877,22.31111 0.01,2.00445 0.2755,3.38128 0.5971,3.05962 0.4862,-0.48613 7.8918,-42.33334 7.9348,-44.83739 0.01,-0.44 1.9858,-0.8 4.396,-0.8 4.0035,0 4.3327,0.20747 3.8087,2.4 -0.3155,1.32 -2.5407,12.72 -4.9448,25.33333 -7.3602,38.6148 -5.9537,34.13333 -10.7128,34.13333 -4.1077,0 -4.1176,-0.0105 -5.2639,-5.6 z m 27.6639,-25.33333 v -30.93333 h 12.2666 12.2667 V 704 v 4.26667 h -8 -8 v 8.53333 8.53334 h 6.9333 6.9334 v 4.26666 4.26667 h -6.9334 -6.9333 v 9.6 9.6 h 8 8 v 4.26667 4.26666 h -12.2667 -12.2666 z M 1152.8,760.4479 c -1.7073,-0.99443 -1.8667,-3.63223 -1.8667,-30.9009 v -29.81366 h 4.2667 4.2667 V 726.4 753.06667 h 6.4 6.4 V 726.4 699.73334 h 4.2666 4.2667 v 29.82913 c 0,28.39951 -0.099,29.88206 -2.0632,30.93334 -2.6525,1.41959 -23.4833,1.38112 -25.9368,-0.0479 z m 36.5333,-29.78123 v -30.93333 h 12.3368 c 6.7853,0 13.2653,0.49689 14.4,1.10419 1.9113,1.02291 2.0632,2.39443 2.0632,18.62914 0,20.5489 0.5041,19.73333 -12.1965,19.73333 h -8.0701 v 11.2 11.2 h -4.2667 -4.2667 z m 20.2667,-11.2 v -11.2 h -5.8667 -5.8666 v 11.2 11.2 h 5.8666 5.8667 z m 34.9333,40.98123 c -1.7046,-0.99285 -1.8666,-3.57965 -1.8666,-29.7967 0,-27.29253 0.1018,-28.76397 2.0632,-29.81367 1.1347,-0.6073 6.9263,-1.10419 12.8701,-1.10419 5.9438,0 11.7354,0.49689 12.8701,1.10419 1.9614,1.04972 2.0632,2.52132 2.0632,29.82914 0,27.30782 -0.1018,28.77942 -2.0632,29.82914 -2.6525,1.41959 -23.4833,1.38112 -25.9368,-0.0479 z M 1264,730.66667 v -22.4 h -6.4 -6.4 v 22.4 22.4 h 6.4 6.4 z m 17.0667,0 v -30.93333 h 3.5832 3.5833 l 7.35,18.93333 7.3501,18.93333 0.2913,-18.93333 0.2913,-18.93333 h 4.242 4.2421 v 30.99772 30.99772 l -3.996,-0.33105 -3.9961,-0.33106 -7.0262,-18.40001 c -3.8644,-10.12001 -7.2262,-18.601 -7.4706,-18.84664 -0.2444,-0.24564 -0.2856,8.15437 -0.091,18.66668 l 0.3531,19.1133 h -4.3531 -4.353 z m 53.3333,30.1134 c 0,-0.45097 2.6346,-14.25097 5.8546,-30.66667 3.22,-16.4157 5.86,-29.99433 5.8666,-30.17473 0.01,-0.1804 2.0472,-0.1804 4.5346,0 l 4.5224,0.328 5.5793,28.8 c 3.0686,15.84 5.5935,29.64 5.6109,30.66667 0.024,1.43135 -0.8468,1.86666 -3.7352,1.86666 -3.9714,0 -4.2066,-0.29781 -5.2651,-6.66666 l -0.6648,-4 h -6.2515 -6.2516 l -0.7335,5.33333 -0.7336,5.33333 h -4.1665 c -2.2916,0 -4.1666,-0.36897 -4.1666,-0.81993 z M 1354.0078,733.6 c -0.7866,-4.84 -1.7459,-11.11016 -2.1319,-13.93369 -0.386,-2.82353 -1.0557,-4.74353 -1.4882,-4.26666 -0.741,0.81707 -4.2544,21.73732 -4.2544,25.33264 0,1.25759 1.1441,1.66771 4.6523,1.66771 h 4.6522 z m 18.7922,-2.93333 v -30.93333 h 3.5832 3.5833 l 7.3501,18.93333 7.3501,18.93333 0.2912,-18.93333 0.2913,-18.93333 h 4.2421 4.242 v 30.99772 30.99772 l -3.996,-0.33105 -3.996,-0.33106 -7.0262,-18.40001 c -3.8645,-10.12001 -7.2262,-18.601 -7.4707,-18.84664 -0.2444,-0.24564 -0.2855,8.15437 -0.091,18.66668 l 0.3531,19.1133 h -4.3531 -4.353 z m 47.7141,17.86667 c -0.4365,-12.40555 -0.7592,-13.97065 -6.3774,-30.93334 l -5.9175,-17.86666 h 4.534 4.5341 l 3.5246,13.37843 c 1.9385,7.35814 3.8815,12.99814 4.3177,12.53333 0.4362,-0.4648 2.0675,-5.6451 3.6251,-11.51176 1.5575,-5.86667 3.0773,-11.50667 3.3772,-12.53334 0.3998,-1.3689 1.6638,-1.86666 4.74,-1.86666 2.3071,0 4.1948,0.34777 4.1948,0.77282 0,0.42505 -2.64,9.02046 -5.8667,19.10091 -5.657,17.67319 -5.8667,18.75086 -5.8667,30.16051 V 761.6 h -4.1796 -4.1797 z m 34.4192,-13.6 v -26.66667 h -5.3333 -5.3333 V 704 699.73334 h 14.4 14.4 V 704 v 4.26667 h -4.8 -4.8 V 734.93334 761.6 h -4.2667 -4.2667 z m 24.5334,-4.26667 v -30.93333 h 4.2666 4.2667 v 12.8 12.8 h 6.4 6.4 v -12.8 -12.8 h 4.2667 4.2666 V 730.66667 761.6 h -4.2666 -4.2667 v -13.86666 -13.86667 h -6.4 -6.4 V 747.73334 761.6 h -4.2667 -4.2666 z m 38.4,0 v -30.93333 h 4.2666 4.2667 V 730.66667 761.6 h -4.2667 -4.2666 z m 17.0666,0 v -30.93333 h 3.5833 3.5832 l 7.3501,18.93333 7.3501,18.93333 0.2913,-18.93333 0.2913,-18.93333 h 4.242 4.2421 v 30.99772 30.99772 l -3.9961,-0.33105 -3.996,-0.33106 -7.0262,-18.40001 c -3.8644,-10.12001 -7.2262,-18.601 -7.4706,-18.84664 -0.2445,-0.24564 -0.2856,8.15437 -0.091,18.66668 l 0.353,19.1133 h -4.353 -4.3531 z m 40.2667,29.82959 c -1.7034,-1.03628 -1.8667,-3.64643 -1.8667,-29.84506 0,-28.05118 0.051,-28.73689 2.2346,-29.90536 3.4528,-1.84789 25.2975,-0.92709 26.5898,1.12083 0.5553,0.88 1.017,5.08 1.026,9.33333 l 0.016,7.73334 h -4.2667 -4.2666 V 713.6 708.26667 h -6.4 -6.4 v 22.4 22.4 h 6.4 6.4 V 744.53334 736 h -3.7334 c -3.6444,0 -3.7333,-0.10158 -3.7333,-4.26666 v -4.26667 h 8 8 l -0.016,15.2 c -0.01,8.36 -0.4707,15.92 -1.0259,16.8 -1.2515,1.98343 -23.964,2.85088 -26.9578,1.02959 z M 337.6,360.59914 c -13.08706,-3.20018 -22.27979,-14.77673 -20.26446,-25.51937 1.76509,-9.40872 6.8141,-15.07874 15.80476,-17.74868 11.61203,-3.4484 23.49998,-1.08003 31.05743,6.1874 10.46433,10.06276 8.33141,23.56374 -5.07779,32.1415 -8.34979,5.3413 -14.2951,6.70583 -21.51994,4.93915 z"
         id="path9" />
    </g>
  </g>
</svg>
